# xmcd
#
# Track frame offsets:
# 150
# 19730
# 53520
# 69592
# 90877
# 107605
# 137550
# 156275
# 186725
# 204995
# 220862
#
# Disc length: 3305 seconds
#
#
# Revision: 0
# Processed by: cddbd v1.5.2PL0 Copyright (c) Steve Scherf et al.
# Submitted via: Nero 7, 11, 10, 0 
#
DISCID=910ce70b
DTITLE=Soapstone - Soapstone
DYEAR=1993
DGENRE=Blues
TTITLE0=Hoodoo You
TTITLE1=Why Should We Wait?
TTITLE2=How About You
TTITLE3=Welfare State
TTITLE4=Sugar And Cane
TTITLE5=Colour Of Your Soul
TTITLE6=Drop That Shit
TTITLE7=Hit It, Get With It
TTITLE8=Sleaze
TTITLE9=Natural Born Woman
TTITLE10=Breathing Stratosphere
EXTD=
EXTT0=Hoodoo You
EXTT1=Why Should We Wait?
EXTT2=How About You
EXTT3=Welfare State
EXTT4=Sugar And Cane
EXTT5=Colour Of Your Soul
EXTT6=Drop That Shit
EXTT7=Hit It, Get With It
EXTT8=Sleaze
EXTT9=Natural Born Woman
EXTT10=Breathing Stratosphere
PLAYORDER=
